<svg width="39" height="39" viewBox="0 0 39 39" fill="none" xmlns="http://www.w3.org/2000/svg">
<path d="M37.7038 3.45141C38.383 4.00756 38.8123 4.59497 38.9541 5.47615C38.9737 5.87254 38.9749 6.26893 38.976 6.66574C38.9768 6.85606 38.9797 7.04629 38.9825 7.2366C38.9907 8.24879 38.8893 9.04714 38.2306 9.83985C37.8847 10.1867 37.4812 10.4446 37.0445 10.6631C37.0145 16.7592 36.9845 22.8552 36.9536 29.136C37.3737 29.136 37.7938 29.136 38.2267 29.136C38.6167 29.3181 38.7947 29.4707 38.9541 29.864C38.9784 30.0733 38.9784 30.0733 38.9805 30.3059C38.9817 30.3934 38.9829 30.4809 38.9841 30.571C38.9843 30.665 38.9845 30.7589 38.9847 30.8557C38.9853 30.9529 38.9859 31.05 38.9865 31.1501C38.9874 31.3556 38.9879 31.5611 38.9878 31.7665C38.9882 32.0803 38.9915 32.3939 38.995 32.7077C38.9955 32.9075 38.9959 33.1072 38.996 33.307C38.998 33.4474 38.998 33.4474 39 33.5906C38.9965 34.1365 38.9578 34.4555 38.5904 34.8689C38.2459 35.0988 37.9734 35.074 37.5749 35.0687C37.4664 35.0683 37.4664 35.0683 37.3559 35.0679C37.1251 35.0669 36.8945 35.0646 36.6638 35.0623C36.5073 35.0614 36.3508 35.0606 36.1944 35.0598C35.8109 35.0578 35.4275 35.0547 35.044 35.0509C35.0457 35.2105 35.0457 35.2105 35.0474 35.3733C35.0483 35.5142 35.0492 35.6551 35.0501 35.796C35.0509 35.866 35.0517 35.9359 35.0525 36.008C35.0563 36.8375 34.8579 37.4025 34.3244 38.0468C33.5569 38.812 32.6692 38.9834 31.6252 38.9887C31.5116 38.9883 31.3979 38.988 31.2808 38.9876C31.1574 38.9879 31.034 38.9882 30.9106 38.9887C30.5729 38.9896 30.2352 38.9894 29.8975 38.989C29.5328 38.9888 29.1681 38.9896 28.8034 38.9903C28.0893 38.9915 27.3753 38.9916 26.6613 38.9914C26.0808 38.9912 25.5003 38.9914 24.9198 38.9918C24.8371 38.9918 24.7545 38.9919 24.6693 38.992C24.5013 38.9921 24.3334 38.9922 24.1654 38.9923C22.591 38.9933 21.0165 38.9931 19.442 38.9925C18.0023 38.9921 16.5626 38.9931 15.1229 38.9948C13.6438 38.9966 12.1647 38.9973 10.6857 38.997C9.85558 38.9968 9.02552 38.997 8.19545 38.9983C7.48881 38.9994 6.78217 38.9995 6.07552 38.9984C5.71518 38.9979 5.35484 38.9978 4.9945 38.9989C4.66423 38.9999 4.33398 38.9996 4.00371 38.9983C3.82849 38.998 3.65328 38.9989 3.47807 39C2.37556 38.9931 1.58045 38.7729 0.787633 37.9903C0.136345 37.2777 0.0215221 36.5206 0.0202994 35.5851C0.019848 35.5022 0.0193965 35.4193 0.0189314 35.3338C0.0176054 35.06 0.0169838 34.7862 0.016481 34.5124C0.0159576 34.3214 0.0154341 34.1304 0.0149103 33.9394C0.0139556 33.539 0.0134237 33.1385 0.0131065 32.7381C0.0126085 32.2266 0.0104237 31.7151 0.00783395 31.2036C0.00613477 30.809 0.0056669 30.4143 0.00552789 30.0197C0.00525377 29.8312 0.00452883 29.6428 0.00333005 29.4543C0.00176759 29.1897 0.0019517 28.9252 0.00253917 28.6606C0.00170124 28.5838 0.000863316 28.5069 0 28.4278C0.00650856 27.4853 0.27616 26.7145 0.944278 26.042C1.50049 25.5969 2.02509 25.2916 2.74958 25.2906C2.9103 25.2897 2.9103 25.2897 3.07427 25.2888C3.2503 25.2892 3.25029 25.2892 3.42988 25.2897C3.55609 25.2893 3.6823 25.2889 3.80851 25.2884C4.1553 25.2873 4.50208 25.2873 4.84887 25.2875C5.2229 25.2876 5.59693 25.2866 5.97096 25.2857C6.70378 25.2842 7.4366 25.2837 8.16942 25.2836C8.76513 25.2835 9.36084 25.2831 9.95655 25.2826C11.6455 25.281 13.3344 25.2801 15.0234 25.2803C15.1145 25.2803 15.2055 25.2803 15.2993 25.2803C15.4361 25.2803 15.4361 25.2803 15.5756 25.2803C17.053 25.2804 18.5304 25.2786 20.0078 25.2761C21.5248 25.2734 23.0418 25.2722 24.5588 25.2724C25.4105 25.2724 26.2621 25.2719 27.1138 25.27C27.839 25.2683 28.5642 25.2679 29.2894 25.2691C29.6593 25.2697 30.0292 25.2697 30.3991 25.2682C30.738 25.2667 31.0769 25.267 31.4158 25.2686C31.5959 25.269 31.776 25.2676 31.9561 25.2662C32.7755 25.2725 33.4422 25.4141 34.0665 25.9737C34.1214 26.0211 34.1762 26.0685 34.2327 26.1174C34.4799 26.3968 34.6645 26.7265 34.8622 27.043C34.8922 21.6076 34.9222 16.1722 34.9531 10.5721C34.8031 10.5421 34.653 10.5121 34.4984 10.4811C33.7971 9.98985 33.2121 9.33774 33.0435 8.47913C33.0317 8.2449 33.0243 8.01318 33.0218 7.77886C33.0211 7.71084 33.0204 7.64282 33.0196 7.57274C33.0184 7.42879 33.0174 7.28484 33.0167 7.14089C33.0156 6.99511 33.0138 6.84933 33.0111 6.70357C32.9907 5.60327 33.0716 4.71441 33.7866 3.82181C34.8306 2.78146 36.494 2.58896 37.7038 3.45141ZM5.60458 30.3019C5.04107 31.1008 4.93287 31.7958 5.03625 32.7759C5.22378 33.5388 5.75725 34.1601 6.40592 34.5846C6.973 34.9277 7.4995 34.9865 8.1464 34.9836C8.27156 34.9842 8.27156 34.9842 8.39924 34.9847C8.67839 34.9856 8.95752 34.9853 9.23667 34.9849C9.43699 34.9853 9.63732 34.9858 9.83764 34.9863C10.3816 34.9875 10.9255 34.9876 11.4694 34.9874C11.9236 34.9873 12.3778 34.9877 12.832 34.9882C13.965 34.9892 15.098 34.9891 16.231 34.9886C17.2139 34.9881 18.1967 34.9891 19.1796 34.9908C20.1898 34.9926 21.2 34.9933 22.2102 34.993C22.777 34.9929 23.3437 34.9931 23.9105 34.9944C24.4436 34.9955 24.9767 34.9953 25.5099 34.9941C25.7053 34.9939 25.9007 34.9942 26.0961 34.9949C26.3634 34.9959 26.6306 34.9951 26.8979 34.994C27.0132 34.995 27.0132 34.995 27.1308 34.996C28.0355 34.9878 28.7654 34.6948 29.4062 34.0499C29.9159 33.3709 30.2344 32.6385 30.1337 31.775C29.9499 30.9094 29.5519 30.2397 28.8606 29.682C28.1781 29.293 27.5479 29.2134 26.7761 29.2142C26.6943 29.2139 26.6124 29.2136 26.5282 29.2134C26.254 29.2126 25.9798 29.2124 25.7056 29.2123C25.509 29.2119 25.3124 29.2114 25.1159 29.2109C24.5817 29.2097 24.0476 29.2092 23.5134 29.2088C23.1796 29.2085 22.8458 29.2081 22.5119 29.2077C21.4672 29.2065 20.4224 29.2056 19.3777 29.2052C18.1723 29.2048 16.9668 29.2032 15.7614 29.2006C14.8293 29.1986 13.8971 29.1977 12.965 29.1976C12.4085 29.1975 11.8519 29.197 11.2954 29.1953C10.7717 29.1938 10.2479 29.1936 9.72422 29.1944C9.53236 29.1945 9.34051 29.1941 9.14865 29.1932C8.88597 29.192 8.62333 29.1926 8.36065 29.1935C8.28541 29.1928 8.21018 29.1921 8.13266 29.1913C7.08254 29.2001 6.3315 29.5579 5.60458 30.3019Z" fill="white"/>
<path d="M5.37278 9.72882C5.53461 9.7282 5.53461 9.7282 5.6997 9.72757C5.99841 9.72662 6.29712 9.72648 6.59584 9.7267C6.9183 9.72673 7.24076 9.72573 7.56321 9.72487C8.19473 9.72336 8.82624 9.72285 9.45775 9.72275C9.97122 9.72267 10.4847 9.72229 10.9982 9.72171C12.4546 9.72011 13.9111 9.71927 15.3676 9.71941C15.4461 9.71942 15.5246 9.71942 15.6055 9.71943C15.7233 9.71944 15.7233 9.71944 15.8436 9.71945C17.1169 9.71953 18.3902 9.71779 19.6635 9.71522C20.9716 9.7126 22.2797 9.71135 23.5878 9.71151C24.3219 9.71157 25.056 9.71107 25.7901 9.70911C26.4152 9.70745 27.0403 9.70706 27.6654 9.70829C27.9842 9.70888 28.3029 9.7089 28.6216 9.70732C28.9677 9.70591 29.3137 9.70676 29.6599 9.70816C29.7598 9.70722 29.8597 9.70629 29.9627 9.70532C30.8912 9.71362 31.7399 9.9928 32.4069 10.6631C34.9996 14.0995 33.1344 24.4759 33.1344 24.495C22.8717 24.495 12.609 24.495 2.0354 24.495C2.0354 11.4406 2.0354 11.4406 2.86054 10.553C3.61372 9.85274 4.37419 9.72603 5.37278 9.72882ZM5.12711 13.1201C4.98154 13.4115 4.99079 13.714 5.03618 14.0301C5.19928 14.2858 5.31069 14.4405 5.58177 14.5761C5.77321 14.5839 5.9649 14.5859 6.1565 14.585C6.32793 14.5846 6.32793 14.5846 6.50282 14.5841C6.62274 14.5834 6.74265 14.5826 6.8662 14.5818C6.98803 14.5814 7.10987 14.5809 7.2317 14.5806C7.53044 14.5795 7.82916 14.578 8.12789 14.5761C8.07725 14.6777 8.02661 14.7793 7.97444 14.884C6.27453 18.245 6.27453 18.245 6.03644 21.8561C6.2192 22.1166 6.34902 22.2783 6.66693 22.3516C7.00395 22.3707 7.18502 22.3308 7.47999 22.1575C7.86771 21.7353 7.91548 21.2128 8.01422 20.6674C8.46884 18.3098 9.33866 16.0346 10.674 14.0301C10.7268 13.5006 10.7268 13.5006 10.5035 13.0348C10.225 12.7643 10.0755 12.7443 9.69761 12.74C9.60806 12.7389 9.51852 12.7377 9.42626 12.7365C9.32917 12.7358 9.23208 12.7351 9.13205 12.7344C9.03247 12.7337 8.93289 12.733 8.83029 12.7322C8.61924 12.731 8.40819 12.73 8.19713 12.7293C7.8744 12.7277 7.55175 12.7237 7.22904 12.7197C7.02415 12.7188 6.81925 12.718 6.61436 12.7174C6.51782 12.7158 6.42129 12.7142 6.32183 12.7126C5.64901 12.7141 5.64901 12.7141 5.12711 13.1201ZM14.766 13.2111C14.6574 13.569 14.6343 13.7537 14.783 14.0984C15.028 14.4028 15.1882 14.5622 15.5866 14.6071C15.6913 14.6057 15.7961 14.6043 15.904 14.6028C16.0746 14.6015 16.0746 14.6015 16.2486 14.6001C16.367 14.5978 16.4854 14.5955 16.6074 14.5932C16.7272 14.592 16.8469 14.5907 16.9704 14.5894C17.2662 14.5862 17.5619 14.5817 17.8577 14.5761C17.8312 14.6281 17.8047 14.6801 17.7774 14.7336C16.7387 16.7896 15.5113 19.3955 15.6753 21.7651C15.8384 22.0208 15.9498 22.1754 16.2209 22.3111C16.7348 22.3642 16.7348 22.3642 17.191 22.1582C17.4361 21.9141 17.4787 21.7889 17.5394 21.4523C17.5605 21.3474 17.5816 21.2425 17.6034 21.1345C17.6147 21.0758 17.626 21.0172 17.6376 20.9568C18.0134 19.0598 18.5748 17.2809 19.4945 15.5771C19.5455 15.4814 19.5964 15.3857 19.649 15.2871C19.9819 14.6693 19.9819 14.6693 20.1544 14.3927C20.3718 14.0429 20.4665 13.8053 20.4038 13.3931C20.2468 13.0474 20.1165 12.8961 19.7673 12.7561C19.5547 12.727 19.5547 12.727 19.3256 12.7283C19.2382 12.7268 19.1508 12.7253 19.0607 12.7238C18.9199 12.7231 18.9199 12.7231 18.7762 12.7224C18.6792 12.7215 18.5821 12.7207 18.482 12.7199C18.2767 12.7186 18.0714 12.7177 17.8661 12.7174C17.5526 12.7163 17.2392 12.7119 16.9256 12.7073C16.726 12.7064 16.5264 12.7057 16.3267 12.7053C16.2332 12.7035 16.1397 12.7017 16.0434 12.6999C15.4565 12.7036 15.1608 12.7634 14.766 13.2111ZM24.5867 13.0291C24.375 13.3217 24.3687 13.585 24.4048 13.9391C24.5613 14.2837 24.69 14.4419 25.0414 14.5761C25.3143 14.6011 25.3143 14.6011 25.614 14.5939C25.7235 14.5933 25.8331 14.5927 25.9461 14.5921C26.0601 14.5906 26.1742 14.5891 26.2917 14.5875C26.4071 14.5867 26.5226 14.5859 26.6416 14.585C26.9266 14.5829 27.2115 14.5799 27.4965 14.5761C27.4696 14.635 27.4426 14.6939 27.4148 14.7546C26.661 16.4104 26.0128 18.0474 25.5926 19.82C25.5637 19.9395 25.5637 19.9395 25.5343 20.0616C25.3914 20.7036 25.2244 21.4637 25.5756 22.0494C25.8743 22.3132 26.0857 22.3296 26.481 22.3587C26.7967 22.2824 26.9676 22.1258 27.1328 21.8561C27.2519 21.4891 27.3183 21.1146 27.3886 20.7356C27.8565 18.4562 28.6229 16.2526 29.929 14.3109C30.1039 14.0188 30.1472 13.8249 30.1336 13.4841C29.9865 13.1432 29.8083 12.9528 29.4971 12.7561C29.2843 12.7152 29.2843 12.7152 29.054 12.7208C28.9663 12.7199 28.8785 12.7191 28.7882 12.7182C28.6469 12.719 28.6469 12.719 28.5028 12.7199C28.4055 12.7196 28.3082 12.7194 28.208 12.7191C28.0023 12.7189 27.7966 12.7194 27.5909 12.7205C27.2764 12.722 26.962 12.7206 26.6474 12.7188C26.4475 12.719 26.2476 12.7193 26.0477 12.7199C25.9537 12.7193 25.8597 12.7188 25.7629 12.7182C25.1289 12.7204 25.1289 12.7204 24.5867 13.0291Z" fill="white"/>
<path d="M18.1133 0.132101C18.5608 0.446698 18.7455 0.986706 18.9718 1.46652C19.0225 1.57108 19.0732 1.67564 19.1255 1.78337C19.2804 2.10361 19.4331 2.4248 19.5856 2.7462C19.6785 2.93996 19.7714 3.13369 19.8644 3.32739C20.0764 3.76982 20.2865 4.21309 20.4949 4.65718C21.5873 4.13145 22.639 3.54622 23.6866 2.93622C24.0961 2.70159 24.4032 2.72614 24.8597 2.8372C25.1382 3.01351 25.1382 3.01351 25.3143 3.29219C25.3143 5.22139 24.3192 7.02394 23.6776 8.84315C19.6265 8.84315 15.5755 8.84315 11.4017 8.84315C10.9215 7.55187 10.4414 6.26059 9.94673 4.93018C9.88671 4.78003 9.8267 4.62988 9.76486 4.47519C9.7218 4.02273 9.7164 3.83611 9.93536 3.43438C10.1256 3.20476 10.1968 3.13166 10.4814 3.07792C11.2709 3.02253 11.8596 3.39724 12.5213 3.77563C12.6358 3.83925 12.7505 3.90271 12.8653 3.96598C13.3218 4.21885 13.7742 4.47774 14.2206 4.74818C14.6246 4.11925 14.9859 3.46935 15.3459 2.81445C15.5758 2.39672 15.8067 1.97951 16.0392 1.56321C16.0961 1.46133 16.153 1.35945 16.2116 1.25449C16.2665 1.15789 16.3215 1.06129 16.3781 0.961759C16.4267 0.875922 16.4753 0.790085 16.5254 0.701647C16.9193 0.0980926 17.4106 -0.186716 18.1133 0.132101Z" fill="white"/>
<path d="M8.18915 31.1246C8.27179 31.1243 8.35443 31.1239 8.43958 31.1236C8.71819 31.1226 8.99679 31.1222 9.2754 31.1219C9.47447 31.1213 9.67354 31.1207 9.87261 31.1201C10.4146 31.1185 10.9567 31.1175 11.4987 31.1168C11.8371 31.1163 12.1754 31.1158 12.5138 31.1152C13.511 31.1135 14.5082 31.1122 15.5054 31.1115C15.6879 31.1114 15.8704 31.1113 16.0529 31.1111C16.1134 31.1111 16.1738 31.111 16.236 31.111C17.2151 31.1102 18.1941 31.1079 19.1731 31.105C20.178 31.102 21.1828 31.1004 22.1877 31.1C22.752 31.0998 23.3163 31.099 23.8806 31.0967C24.4113 31.0946 24.942 31.0942 25.4728 31.0952C25.6678 31.0952 25.8628 31.0946 26.0577 31.0934C26.3236 31.0918 26.5894 31.0924 26.8552 31.0936C26.9327 31.0926 27.0101 31.0916 27.0899 31.0906C27.4561 31.0946 27.635 31.1103 27.9516 31.3114C28.2692 31.6448 28.2596 31.9219 28.2564 32.3679C28.2241 32.594 28.2241 32.594 28.0138 32.8727C27.5926 33.1766 27.211 33.1535 26.7115 33.1534C26.6303 33.1537 26.5491 33.154 26.4655 33.1544C26.1924 33.1554 25.9193 33.1557 25.6463 33.1561C25.4509 33.1566 25.2555 33.1573 25.0602 33.1579C24.5287 33.1595 23.9972 33.1604 23.4657 33.1612C23.1338 33.1617 22.8019 33.1622 22.47 33.1628C21.432 33.1645 20.3941 33.1658 19.3561 33.1666C18.1571 33.1675 16.958 33.1699 15.7589 33.1735C14.8327 33.1763 13.9065 33.1776 12.9802 33.1779C12.4267 33.1781 11.8732 33.179 11.3198 33.1812C10.7992 33.1834 10.2786 33.1837 9.758 33.1828C9.56687 33.1828 9.37574 33.1833 9.18462 33.1846C8.92377 33.1862 8.66302 33.1856 8.40217 33.1844C8.32646 33.1854 8.25075 33.1864 8.17275 33.1874C7.69206 33.182 7.4171 33.0965 7.03678 32.776C6.81238 32.4391 6.79302 32.1658 6.85492 31.775C7.21429 31.1157 7.48528 31.1244 8.18915 31.1246Z" fill="white"/>
</svg>
